<svg width="16" height="16" viewBox="0 0 16 16" fill="none" xmlns="http://www.w3.org/2000/svg">
<path fill-rule="evenodd" clip-rule="evenodd" d="M1.6152 1.61538C1.79575 1.43483 2.04063 1.33339 2.29596 1.33339H13.7029C13.9447 1.33339 14.0431 1.36192 14.0976 1.386C14.1553 1.4115 14.2282 1.45987 14.3837 1.61538C14.5909 1.82258 14.6657 2.04763 14.6657 2.29615V13.6647C14.665 13.6771 14.6647 13.6896 14.6647 13.7021C14.6647 13.9574 14.5632 14.2023 14.3827 14.3829C14.2021 14.5634 13.9572 14.6648 13.7019 14.6648H2.29596C2.04063 14.6648 1.79575 14.5634 1.6152 14.3829C1.43464 14.2023 1.33321 13.9574 1.33321 13.7021V2.29615C1.33321 2.04081 1.43464 1.79593 1.6152 1.61538ZM15.8382 14.5437C15.7238 14.834 15.5504 15.1008 15.3255 15.3257C14.8949 15.7563 14.3109 15.9982 13.7019 15.9982H2.29596C1.68701 15.9982 1.10299 15.7563 0.672386 15.3257C0.241786 14.8951 -0.00012207 14.311 -0.00012207 13.7021V2.29615C-0.00012207 1.68719 0.241786 1.10317 0.672386 0.672569C0.898375 0.44658 1.16662 0.272564 1.45855 0.158214C1.57479 0.0595667 1.72529 6.10352e-05 1.88969 6.10352e-05H2.29596H13.7029C14.0404 6.10352e-05 14.3458 0.0379688 14.6365 0.166421C14.924 0.293453 15.1376 0.483702 15.3265 0.672572C15.8081 1.15413 15.999 1.72995 15.999 2.29615V14.1094C15.999 14.2753 15.9384 14.4271 15.8382 14.5437Z" fill="#2D3440"/>
</svg>
