<svg width="14" height="14" viewBox="0 0 14 14" fill="none" xmlns="http://www.w3.org/2000/svg">
<path fill-rule="evenodd" clip-rule="evenodd" d="M7.00027 1.33333C3.87051 1.33333 1.33333 3.87051 1.33333 7.00027C1.33333 10.13 3.87051 12.6672 7.00027 12.6672C10.13 12.6672 12.6672 10.13 12.6672 7.00027C12.6672 3.87051 10.13 1.33333 7.00027 1.33333ZM0 7.00027C0 3.13413 3.13413 0 7.00027 0C10.8664 0 14.0005 3.13413 14.0005 7.00027C14.0005 10.8664 10.8664 14.0005 7.00027 14.0005C3.13413 14.0005 0 10.8664 0 7.00027ZM7.00006 6.33332C7.36825 6.33332 7.66672 6.6318 7.66672 6.99999V9.53343C7.66672 9.90162 7.36825 10.2001 7.00006 10.2001C6.63187 10.2001 6.33339 9.90162 6.33339 9.53343V6.99999C6.33339 6.6318 6.63187 6.33332 7.00006 6.33332ZM7.00006 3.79989C6.63187 3.79989 6.33339 4.09836 6.33339 4.46655C6.33339 4.83474 6.63187 5.13322 7.00006 5.13322H7.00672C7.37491 5.13322 7.67339 4.83474 7.67339 4.46655C7.67339 4.09836 7.37491 3.79989 7.00672 3.79989H7.00006Z" fill="#2D3440"/>
</svg>
